<svg width="46" height="37" viewBox="0 0 46 37" fill="none" xmlns="http://www.w3.org/2000/svg">
<g id="Empty Cart 1" filter="url(#filter0_d_4_3)">
<path id="Vector" d="M40.3926 9.89312L40.4012 9.90363L40.41 9.91391C40.9492 10.5374 41.1186 11.344 40.9193 12.1087L40.9179 12.1142L37.9172 23.8979L37.9172 23.8979L37.9146 23.9084C37.6335 25.0647 36.507 25.9378 35.1653 25.9378H19.2029C17.8786 25.9378 16.7686 25.0795 16.4484 23.8882C16.4482 23.8874 16.448 23.8867 16.4478 23.8859L11.5685 5.29676L11.5667 5.28988L11.5648 5.28302C11.2805 4.2596 10.353 3.5942 9.32131 3.5942H5.24089C5.16554 3.5942 5.10094 3.56492 5.05635 3.52225C5.01217 3.47996 5 3.43814 5 3.4076C5 3.37676 5.01218 3.33516 5.05631 3.293C5.10108 3.25023 5.16592 3.22101 5.24089 3.22101H9.32131C10.6464 3.22101 11.757 4.08039 12.0764 5.27286L12.0765 5.27329L12.8361 8.10376L13.0349 8.84459H13.8019H38.166C39.0264 8.84459 39.8627 9.24555 40.3926 9.89312ZM37.4104 23.8742L37.4133 23.8638L37.4159 23.8533L40.4112 12.0907C40.6372 11.325 40.3744 10.6189 39.9953 10.1357L39.9951 10.1355C39.5589 9.58001 38.865 9.25537 38.1677 9.25537H14.4426H13.1485L13.4749 10.5076L16.9553 23.8588L16.9573 23.8665L16.9595 23.8742C17.2437 24.8975 18.1711 25.563 19.2029 25.563H35.1668C36.1987 25.563 37.1261 24.8975 37.4104 23.8742Z" fill="#43464E" stroke="#292929" stroke-width="2"/>
<path id="Vector_2" d="M20.045 35.4207H20.0443C18.274 35.4207 16.8843 34.029 16.8843 32.4427C16.8843 30.8564 18.2739 29.4647 20.0443 29.4647C21.8143 29.4647 23.2044 30.8569 23.2044 32.4438C23.2044 34.0306 21.8148 35.4219 20.045 35.4207ZM22.6853 32.4447V32.4429C22.6853 30.9686 21.4745 29.8737 20.0443 29.8737C18.6141 29.8737 17.4034 30.9687 17.4034 32.4429C17.4034 33.9171 18.6141 35.0121 20.0443 35.0121C21.435 35.0121 22.6826 33.879 22.6853 32.4447Z" fill="#43464E" stroke="#292929" stroke-width="2"/>
<g id="Vector_3">
<mask id="path-3-inside-1_4_3" fill="white">
<path d="M33.8062 28.4647C31.5262 28.4647 29.6462 30.2626 29.6462 32.4429C29.6462 34.6229 31.5264 36.4209 33.8062 36.4209C36.0862 36.4209 37.9663 34.6229 37.9663 32.4429C37.9273 30.264 36.0862 28.4647 33.8062 28.4647ZM33.8062 34.0121C32.8859 34.0121 32.1654 33.3232 32.1654 32.4429C32.1654 31.5628 32.8859 30.8737 33.8062 30.8737C34.7268 30.8737 35.4473 31.5628 35.4473 32.4429C35.4473 33.2857 34.6861 34.0121 33.8062 34.0121Z"/>
</mask>
<path d="M33.8062 28.4647C31.5262 28.4647 29.6462 30.2626 29.6462 32.4429C29.6462 34.6229 31.5264 36.4209 33.8062 36.4209C36.0862 36.4209 37.9663 34.6229 37.9663 32.4429C37.9273 30.264 36.0862 28.4647 33.8062 28.4647ZM33.8062 34.0121C32.8859 34.0121 32.1654 33.3232 32.1654 32.4429C32.1654 31.5628 32.8859 30.8737 33.8062 30.8737C34.7268 30.8737 35.4473 31.5628 35.4473 32.4429C35.4473 33.2857 34.6861 34.0121 33.8062 34.0121Z" fill="#43464E"/>
<path d="M37.9663 32.4429H40.9663V32.4161L40.9658 32.3893L37.9663 32.4429ZM33.8062 25.4647C29.9971 25.4647 26.6462 28.4809 26.6462 32.4429H32.6462C32.6462 32.0444 33.0554 31.4647 33.8062 31.4647V25.4647ZM26.6462 32.4429C26.6462 36.4049 29.9975 39.4209 33.8062 39.4209V33.4209C33.0554 33.4209 32.6462 32.841 32.6462 32.4429H26.6462ZM33.8062 39.4209C37.6153 39.4209 40.9663 36.4048 40.9663 32.4429H34.9663C34.9663 32.8411 34.5572 33.4209 33.8062 33.4209V39.4209ZM40.9658 32.3893C40.8966 28.5186 37.6656 25.4647 33.8062 25.4647V31.4647C34.5069 31.4647 34.9581 32.0093 34.9668 32.4965L40.9658 32.3893ZM33.8062 31.0121C34.415 31.0121 35.1654 31.5414 35.1654 32.4429H29.1654C29.1654 35.1049 31.3567 37.0121 33.8062 37.0121V31.0121ZM35.1654 32.4429C35.1654 33.3443 34.4152 33.8737 33.8062 33.8737V27.8737C31.3565 27.8737 29.1654 29.7813 29.1654 32.4429H35.1654ZM33.8062 33.8737C33.1976 33.8737 32.4473 33.3445 32.4473 32.4429H38.4473C38.4473 29.7811 36.2559 27.8737 33.8062 27.8737V33.8737ZM32.4473 32.4429C32.4473 31.9443 32.669 31.5802 32.884 31.3747C33.0997 31.1686 33.4175 31.0121 33.8062 31.0121V37.0121C36.2132 37.0121 38.4473 35.0694 38.4473 32.4429H32.4473Z" fill="#292929" mask="url(#path-3-inside-1_4_3)"/>
</g>
</g>
<defs>
<filter id="filter0_d_4_3" x="0" y="0" width="46" height="46" filterUnits="userSpaceOnUse" color-interpolation-filters="sRGB">
<feFlood flood-opacity="0" result="BackgroundImageFix"/>
<feColorMatrix in="SourceAlpha" type="matrix" values="0 0 0 0 0 0 0 0 0 0 0 0 0 0 0 0 0 0 127 0" result="hardAlpha"/>
<feOffset dy="4"/>
<feGaussianBlur stdDeviation="2"/>
<feComposite in2="hardAlpha" operator="out"/>
<feColorMatrix type="matrix" values="0 0 0 0 0 0 0 0 0 0 0 0 0 0 0 0 0 0 0.25 0"/>
<feBlend mode="normal" in2="BackgroundImageFix" result="effect1_dropShadow_4_3"/>
<feBlend mode="normal" in="SourceGraphic" in2="effect1_dropShadow_4_3" result="shape"/>
</filter>
</defs>
</svg>
