<?xml version="1.0" encoding="UTF-8"?>
<svg version="1.1" xmlns="http://www.w3.org/2000/svg" width="1064" height="234" viewBox="0 0 1064 234">
<path d="M0 0 C6.64776842 4.7023712 11.18031405 11.53499145 13.25 19.375 C13.59834564 22.1631433 13.75321243 24.94381147 13.875 27.75 C13.91367187 28.48605469 13.95234375 29.22210938 13.9921875 29.98046875 C14.08557998 31.77827406 14.1688371 33.57660108 14.25 35.375 C14.80945313 35.1584375 15.36890625 34.941875 15.9453125 34.71875 C26.35826541 31.10267632 36.7004992 30.9573001 46.921875 35.24609375 C53.85040372 38.60573268 60.60641611 43.415457 63.625 50.6875 C65.41816645 61.26718206 65.73624901 71.29125737 64.3125 81.9375 C64.05533203 83.86142578 64.05533203 83.86142578 63.79296875 85.82421875 C63.25 89.375 63.25 89.375 62.61328125 92.01953125 C62.09475936 94.38813924 61.81314516 95.9835575 62.25 98.375 C64.55627981 101.77950829 67.23816591 104.58724109 70.25 107.375 C72.97076308 80.97419127 74.08635645 55.05195605 61.9375 30.625 C59.11502232 24.55552563 59.27727885 18.19077175 61.4375 11.9375 C65.29842916 6.47894498 68.79981522 5.02196242 75.1394043 3.83447266 C81.43396062 2.90469046 87.7774457 2.54963376 94.125 2.1875 C94.85776154 2.14486023 95.59052307 2.10222046 96.3454895 2.05828857 C153.11089016 -1.16256401 153.11089016 -1.16256401 166.0703125 9.93359375 C174.58101913 22.19003055 179.3414794 35.45204081 176.71484375 50.42578125 C175.58131371 55.30057982 174.17825422 59.7422239 172 64.25 C170.63802585 67.14681426 170.25 68.38333649 170.25 71.6875 C171.38966113 74.75033929 172.76392157 76.28990196 175.25 78.375 C175.37375 77.83875 175.4975 77.3025 175.625 76.75 C179.87134367 60.61389404 188.34392466 46.07376324 202.54296875 36.84765625 C216.79871484 29.09236581 232.50880802 29.80498666 247.66015625 34.25390625 C248.84480469 34.62386719 250.02945312 34.99382813 251.25 35.375 C252.67119141 35.79072266 252.67119141 35.79072266 254.12109375 36.21484375 C264.7049885 39.79784712 271.68932074 48.01953286 277.25 57.375 C277.91 58.365 278.57 59.355 279.25 60.375 C279.78367187 59.75753906 280.31734375 59.14007813 280.8671875 58.50390625 C293.44132076 44.21116308 306.73572714 33.39326484 326.20019531 31.47949219 C336.51849995 30.95349953 346.76619125 33.47066026 356.25 37.375 C357.28125 37.79652344 358.3125 38.21804687 359.375 38.65234375 C368.07097798 42.57640381 374.75123578 47.82781436 378.25 56.9375 C378.58 58.071875 378.91 59.20625 379.25 60.375 C379.91620192 48.57582369 378.77405828 40.70709445 372.4375 30.4375 C370.09902751 24.40670251 370.35421275 17.27961708 372.3125 11.125 C375.53612942 3.860483 381.11353139 -1.3697687 388.25 -4.625 C398.66737138 -8.09745713 408.37087497 -7.48211155 418.25 -2.625 C423.4628523 0.53645727 427.88752826 4.28034585 431.25 9.375 C431.89664171 12.26001684 432.186986 14.47150892 432.25 17.375 C432.29060547 18.82712891 432.29060547 18.82712891 432.33203125 20.30859375 C432.40710132 25.77506002 432.22817069 30.9950612 431.25 36.375 C437.0327038 36.07701224 437.0327038 36.07701224 441.9375 33.3125 C447.89410442 29.82844836 454.63070873 30.57124149 461.22265625 32.03515625 C469.8194882 34.8282198 477.05349392 39.91914345 482.25 47.375 C486.8730996 45.4043239 490.02078827 41.9880588 493.6171875 38.56640625 C504.45579791 29.54495159 520.95686172 31.75355154 534.25 32.375 C540.02585045 32.91877157 545.61106966 34.03946387 551.25 35.375 C552.301875 35.5915625 553.35375 35.808125 554.4375 36.03125 C556.89818476 36.61845886 559.01605937 37.19349362 561.25 38.375 C562.8125 41.0625 562.8125 41.0625 563.25 44.375 C563.45625 45.6125 563.6625 46.85 563.875 48.125 C564.97648623 58.93588339 564.42192636 70.33810221 559.5 80.25 C556.89241338 86.76896655 559.47808763 92.01159884 561.8125 98.25 C565.38736415 108.24412093 566.67522138 120.21026671 562.1875 130.125 C556.55182731 139.27708127 547.80864844 143.59469369 537.65234375 146.3515625 C520.14680254 150.10149825 501.7548831 150.66208586 486.2109375 140.77734375 C484.25 139.375 484.25 139.375 482.25 137.375 C479.50360301 137.56440669 478.25438967 138.37138498 476.125 140.125 C468.89557768 145.78280877 461.49419562 148.78022501 452.25 148.375 C444.1690507 147.35692765 438.20647972 144.5312198 431.625 139.80078125 C429.14010505 138.03186459 429.14010505 138.03186459 425.25 138.375 C423.29098029 139.56571294 423.29098029 139.56571294 421.4375 141.1875 C413.34351079 147.55457129 404.44219019 149.30458086 394.25 148.375 C389.99245295 146.79813072 387.17085006 144.83289617 384.25 141.375 C383.62817383 138.79711914 383.62817383 138.79711914 383.45703125 135.91015625 C383.38419922 134.86279297 383.31136719 133.81542969 383.23632812 132.73632812 C383.1502832 131.1034082 383.1502832 131.1034082 383.0625 129.4375 C382.92548558 127.28240407 382.78624162 125.12744848 382.64453125 122.97265625 C382.59143799 122.01883057 382.53834473 121.06500488 382.48364258 120.08227539 C382.25644947 117.44973168 381.81992507 114.95298157 381.25 112.375 C377.91135163 115.42621507 375.81026296 118.5887982 373.5625 122.5 C366.31519594 134.6010031 356.65019105 144.88267183 342.67578125 148.87890625 C328.08781276 151.86227501 312.34624654 150.36617927 299.40625 142.6875 C290.26200867 136.45735756 283.54851671 128.58397718 279.25 118.375 C279.25 117.385 279.25 116.395 279.25 115.375 C278.59 115.375 277.93 115.375 277.25 115.375 C277.14558594 115.92929688 277.04117187 116.48359375 276.93359375 117.0546875 C273.95714905 127.15759121 265.04453918 136.65834023 256.36328125 142.2265625 C241.75888048 149.9773948 226.58482635 151.33849646 210.5546875 147.46484375 C199.75303829 143.90259773 186.67988822 133.90820233 180.25 124.375 C176.89364121 125.49378626 176.44946478 126.16637241 174.375 128.875 C164.62318507 140.33802136 151.46121429 146.38935666 136.67602539 147.68920898 C124.34174272 148.46392298 112.04260412 148.48984795 99.6875 148.4375 C97.59700629 148.4324697 95.5065114 148.42790953 93.41601562 148.42382812 C88.36064707 148.41295581 83.30533715 148.39577755 78.25 148.375 C78.18941406 147.54355469 78.12882812 146.71210938 78.06640625 145.85546875 C77.98261719 144.76878906 77.89882813 143.68210938 77.8125 142.5625 C77.73128906 141.48355469 77.65007812 140.40460938 77.56640625 139.29296875 C77.34787539 136.31510095 77.34787539 136.31510095 76.25 133.375 C72.77595824 133.93173746 71.54965784 134.87223467 69.5 137.6875 C66.30325622 141.62692162 62.93571053 143.55756448 58.25 145.375 C57.35796875 145.73207031 56.4659375 146.08914062 55.546875 146.45703125 C46.4619663 148.98659706 34.83833962 148.74209566 26.29296875 144.66796875 C23.49188017 142.89519567 21.11809619 140.83360233 18.8203125 138.44921875 C17.30797655 137.17775506 17.30797655 137.17775506 15.375 137.49609375 C12.69532907 138.60441353 10.51067732 140.10158739 8.125 141.75 C-2.46268412 148.55237753 -13.01391764 149.91009253 -25.5 147.94140625 C-31.25681257 146.37578662 -34.50818268 143.30006862 -37.75 138.375 C-39.625 134.9375 -39.625 134.9375 -40.75 132.375 C-41.39324219 132.81070313 -42.03648437 133.24640625 -42.69921875 133.6953125 C-58.73162659 144.26160697 -75.17007535 150.75540274 -94.4375 147.3125 C-105.60657977 144.73409324 -115.04160464 139.56369154 -123.6640625 132.07421875 C-125.62571072 130.47624689 -127.44792089 129.40103978 -129.75 128.375 C-130.28625 128.8596875 -130.8225 129.344375 -131.375 129.84375 C-136.50665863 134.23266857 -141.73942515 137.67082891 -147.75 140.6875 C-148.389375 141.01234375 -149.02875 141.3371875 -149.6875 141.671875 C-158.63899805 146.0212924 -166.98649328 147.91672543 -176.9375 147.8125 C-177.93837646 147.80637695 -178.93925293 147.80025391 -179.97045898 147.79394531 C-191.73409644 147.54810127 -202.85364168 145.76003137 -211.8046875 137.47265625 C-224.61866221 123.14630255 -233.41171524 106.07241965 -232.6875 86.5625 C-230.85708413 67.86757837 -221.60323913 53.51214601 -208.75 40.375 C-208.29447754 39.86759277 -207.83895508 39.36018555 -207.36962891 38.83740234 C-198.35300678 30.69607486 -179.2051865 31.76116187 -167.95703125 32.00390625 C-155.92196291 32.61818927 -147.11405457 36.4065865 -138.875 45.375 C-135.87550978 48.88944695 -133.14178438 52.42335624 -130.75 56.375 C-130.38390625 55.97410156 -130.0178125 55.57320312 -129.640625 55.16015625 C-117.08398596 41.97568526 -100.4065071 31.67983154 -81.8125 30.9765625 C-79.79166674 30.96872981 -77.77071323 30.97662414 -75.75 31 C-74.24566406 30.98259766 -74.24566406 30.98259766 -72.7109375 30.96484375 C-65.69486058 30.99203785 -56.69907976 31.12083713 -51.03100586 35.79150391 C-49.6875 37.375 -49.6875 37.375 -47.75 40.375 C-47.09 41.365 -46.43 42.355 -45.75 43.375 C-46.183125 41.6734375 -46.183125 41.6734375 -46.625 39.9375 C-47.00048486 38.4167863 -47.37545754 36.89594608 -47.75 35.375 C-47.94078125 34.63121094 -48.1315625 33.88742188 -48.328125 33.12109375 C-50.80153237 22.96245633 -49.72425825 14.56145717 -45.1875 5.125 C-32.70274348 -8.96036633 -15.25090365 -9.14534597 0 0 Z M120.25 49.375 C119.05658248 50.34832261 119.05658248 50.34832261 119.13647461 52.14086914 C119.14171143 52.88973389 119.14694824 53.63859863 119.15234375 54.41015625 C119.15556641 55.21904297 119.15878906 56.02792969 119.16210938 56.86132812 C119.17048828 57.71146484 119.17886719 58.56160156 119.1875 59.4375 C119.19201172 60.29150391 119.19652344 61.14550781 119.20117188 62.02539062 C119.21299627 64.14195663 119.23093231 66.25848685 119.25 68.375 C120.57 68.375 121.89 68.375 123.25 68.375 C126.02471079 62.13190073 126.62634203 57.17703375 126.25 50.375 C124.2585944 49.99366701 122.25720923 49.66174418 120.25 49.375 Z M-180.75 75.375 C-180.75 76.365 -180.75 77.355 -180.75 78.375 C-178.46294169 79.51852916 -177.15735238 79.47834439 -174.625 79.4375 C-173.34625 79.416875 -172.0675 79.39625 -170.75 79.375 C-170.75 78.385 -170.75 77.395 -170.75 76.375 C-173.03705831 75.23147084 -174.34264762 75.27165561 -176.875 75.3125 C-178.793125 75.3434375 -178.793125 75.3434375 -180.75 75.375 Z M477.25 76.375 C472.98751535 80.42196577 469.32701913 84.31989714 466.25 89.375 C465.651875 90.261875 465.05375 91.14875 464.4375 92.0625 C464.045625 92.825625 463.65375 93.58875 463.25 94.375 C463.58 95.365 463.91 96.355 464.25 97.375 C467.13468155 98.81820607 467.13468155 98.81820607 470.5625 100.125 C477.90332835 103.32856325 477.90332835 103.32856325 480.0625 107.25 C480.454375 108.28125 480.84625 109.3125 481.25 110.375 C484.45955896 110.01838234 485.30438323 109.31620732 487.5625 106.875 C490.81333342 103.85096891 492.89695743 103.63106133 497.25 103.375 C496.610625 102.900625 495.97125 102.42625 495.3125 101.9375 C492.6347614 99.69694321 490.08461242 97.41227849 487.5625 95 C486.79550781 94.27039063 486.02851562 93.54078125 485.23828125 92.7890625 C481.49667072 88.24620335 480.93549538 83.08746149 480.25 77.375 C479.26 77.045 478.27 76.715 477.25 76.375 Z M-43.75 73.375 C-44.43025637 75.37041868 -45.09490497 77.37117991 -45.75 79.375 C-45.95625 79.99375 -46.1625 80.6125 -46.375 81.25 C-46.75376495 83.39633473 -46.78662976 85.33109007 -46.7734375 87.5078125 C-46.76183594 89.42207031 -46.76183594 89.42207031 -46.75 91.375 C-48.61205078 91.68244141 -48.61205078 91.68244141 -50.51171875 91.99609375 C-52.15365303 92.26818572 -53.79557972 92.54032355 -55.4375 92.8125 C-56.25412109 92.94720703 -57.07074219 93.08191406 -57.91210938 93.22070312 C-59.10610352 93.41889648 -59.10610352 93.41889648 -60.32421875 93.62109375 C-61.09572266 93.74814697 -61.86722656 93.8752002 -62.66210938 94.00610352 C-64.33090283 94.30095231 -65.98718487 94.66629928 -67.63671875 95.0546875 C-69.75 95.375 -69.75 95.375 -72.875 94.0625 C-76.36899375 90.79637541 -77.00114598 88.28648247 -78.01171875 83.71484375 C-78.8239887 81.14050671 -79.61339146 79.99903831 -81.75 78.375 C-84.07488881 78.6568047 -85.65892835 79.32946418 -87.75 80.375 C-88.2854772 88.30092155 -88.2854772 88.30092155 -86.1875 95.8125 C-81.16622262 101.21177359 -81.16622262 101.21177359 -74.42578125 103.75390625 C-68.45442866 103.89451895 -62.50185196 102.9669267 -56.75 101.375 C-56.42 101.045 -56.09 100.715 -55.75 100.375 C-50.51817013 100.2892323 -50.51817013 100.2892323 -47.75 101.375 C-45.85715231 103.84665235 -44.76454313 106.44483924 -43.75 109.375 C-42.43 109.375 -41.11 109.375 -39.75 109.375 C-40.245 92.05 -40.245 92.05 -40.75 74.375 C-41.74 74.045 -42.73 73.715 -43.75 73.375 Z M224.25 79.375 C220.59118527 87.91223438 220.2739987 95.5204776 223.25 104.375 C225.13375675 106.69983785 225.13375675 106.69983785 228.25 106.5625 C231.17386603 106.57579609 231.17386603 106.57579609 233.25 105.375 C233.336985 101.60431168 233.39038579 97.83388068 233.4375 94.0625 C233.46263672 92.99064453 233.48777344 91.91878906 233.51367188 90.81445312 C233.52333984 89.78642578 233.53300781 88.75839844 233.54296875 87.69921875 C233.5586792 86.75135498 233.57438965 85.80349121 233.59057617 84.8269043 C233.4404663 82.33792294 233.4404663 82.33792294 231.9309082 80.55395508 C229.42238889 78.79453027 227.22477165 79.17668189 224.25 79.375 Z M323.0234375 80.4140625 C320.33645417 83.38513217 320.79010974 85.82189623 320.875 89.75 C320.88789062 91.05710937 320.90078125 92.36421875 320.9140625 93.7109375 C321.31210351 98.05236155 322.00605774 101.04220472 325 104.25 C328.04706234 105.77353117 329.9811428 105.02698518 333.25 104.375 C333.36632513 100.95862047 333.43728897 97.54275103 333.5 94.125 C333.53351562 93.15691406 333.56703125 92.18882813 333.6015625 91.19140625 C333.75378354 85.62866352 333.75378354 85.62866352 331.484375 80.703125 C328.41902243 78.88106229 326.2447857 78.91076667 323.0234375 80.4140625 Z M119.25 102.375 C118.26 103.86 118.26 103.86 117.25 105.375 C117.65958631 107.47587365 117.65958631 107.47587365 118.625 109.5625 C118.92148437 110.27792969 119.21796875 110.99335938 119.5234375 111.73046875 C119.76320313 112.27316406 120.00296875 112.81585938 120.25 113.375 C126.0522175 113.73763859 129.88999211 112.63184543 135.25 110.375 C135.63063221 108.0489143 135.96269945 105.71444736 136.25 103.375 C134.19985387 101.32485387 130.12115412 102.14442025 127.3125 102.125 C126.1997168 102.0940625 126.1997168 102.0940625 125.06445312 102.0625 C122.65532465 102.01037261 122.65532465 102.01037261 119.25 102.375 Z " fill="#09090A" transform="translate(415.75,27.625)"/>
<path d="M0 0 C0.96372528 -0.00126892 1.92745056 -0.00253784 2.92037964 -0.00384521 C6.09303939 -0.00213855 9.26496671 0.02322676 12.4375 0.05078125 C14.63167253 0.06012938 16.82584573 0.06932371 19.02001953 0.07836914 C34.13011157 0.17310391 49.21851851 0.60878309 64.3125 1.30078125 C65.26560059 1.34407562 66.21870117 1.38737 67.20068359 1.43197632 C69.88158251 1.55715595 72.56191122 1.6903059 75.2421875 1.828125 C76.42939896 1.88604218 76.42939896 1.88604218 77.64059448 1.94512939 C80.78140429 2.1183257 83.43744413 2.36326263 86.4375 3.36328125 C91.50183906 11.91404958 94.88877927 21.4871126 92.4375 31.36328125 C90.0705475 37.31581526 86.24135264 40.94607508 80.5703125 43.8125 C79.57773438 44.22113281 78.58515625 44.62976563 77.5625 45.05078125 C76.57507813 45.46714844 75.58765625 45.88351563 74.5703125 46.3125 C71.19205996 47.44560465 67.97151979 47.96027899 64.4375 48.36328125 C64.44797363 48.94368164 64.45844727 49.52408203 64.46923828 50.12207031 C65.63581235 125.93461775 65.63581235 125.93461775 52.4375 140.36328125 C43.33133444 147.72571298 31.88367348 147.98803377 20.69140625 147.16015625 C10.26913186 145.88678408 -0.69483051 141.56702462 -7.5625 133.36328125 C-9.55346255 127.32035975 -8.87589259 120.23165788 -6.5625 114.36328125 C-3.47658323 109.00715183 1.0049922 103.45713098 6.4375 100.36328125 C11.53183962 100.45762087 11.53183962 100.45762087 13.4375 102.36328125 C15.12608822 95.13469501 15.82507235 88.14800234 16.0625 80.73828125 C16.10117188 79.73410156 16.13984375 78.72992188 16.1796875 77.6953125 C16.27278622 75.2514712 16.35860913 72.80761529 16.4375 70.36328125 C15.43332031 70.38648437 14.42914063 70.4096875 13.39453125 70.43359375 C-8.75203581 70.79549244 -8.75203581 70.79549244 -15.5 66.48828125 C-23.14939975 54.89828164 -26.77898651 43.97400304 -26.9375 30.17578125 C-26.95151855 29.33208984 -26.96553711 28.48839844 -26.97998047 27.61914062 C-26.92675074 20.66924924 -25.91849341 15.02606512 -21.22265625 9.71875 C-20.36542969 9.00332031 -19.50820312 8.28789063 -18.625 7.55078125 C-17.77035156 6.82246094 -16.91570312 6.09414063 -16.03515625 5.34375 C-15.21917969 4.69019531 -14.40320313 4.03664062 -13.5625 3.36328125 C-13.04872803 2.83492676 -12.53495605 2.30657227 -12.00561523 1.76220703 C-8.15659142 -0.44174085 -4.35855197 -0.04362452 0 0 Z " fill="#8BA1E1" transform="translate(110.5625,28.63671875)"/>
<path d="M0 0 C0.8155838 0.01625931 1.6311676 0.03251862 2.47146606 0.04927063 C3.75659592 0.0473748 3.75659592 0.0473748 5.06768799 0.04544067 C7.85685656 0.0506437 10.6436712 0.09478596 13.43240356 0.14302063 C15.3493927 0.16052896 17.26638496 0.17769896 19.18338013 0.1945343 C33.54290479 0.37528516 47.61945674 1.33424974 61.80740356 3.64302063 C62.58503052 3.75516907 63.36265747 3.8673175 64.16384888 3.98286438 C74.63776517 5.50123077 74.63776517 5.50123077 78.43240356 9.20552063 C79.11302856 10.90708313 79.11302856 10.90708313 79.80740356 12.64302063 C80.15931763 13.45899719 80.51123169 14.27497375 80.87380981 15.11567688 C85.46239011 25.97158635 86.38853563 35.58292152 81.95974731 46.78755188 C79.97642711 51.50094847 77.63724699 55.65816634 74.66287231 59.81880188 C73.63704828 61.61513165 73.63704828 61.61513165 73.96755981 63.67036438 C74.97241973 66.03061674 76.15103921 67.18558125 78.05740356 68.89302063 C83.77135069 74.36057578 88.36358075 81.08093492 89.14334106 89.09614563 C89.28078811 102.45599832 85.65243196 109.64053734 76.80740356 119.64302063 C76.238927 120.35587219 75.67045044 121.06872375 75.08474731 121.80317688 C71.79506744 124.46087709 68.4639526 124.97885254 64.36990356 125.76802063 C63.16273682 126.01612488 63.16273682 126.01612488 61.93118286 126.26924133 C59.56001757 126.74781866 57.18564608 127.20109655 54.80740356 127.64302063 C53.63693481 127.86087219 52.46646606 128.07872375 51.26052856 128.30317688 C35.18914934 131.00172936 19.04662712 130.77416109 2.80740356 130.64302063 C2.32000348 126.35224925 1.844124 122.06026699 1.36990356 117.76802063 C1.23519653 116.58337219 1.1004895 115.39872375 0.96170044 114.17817688 C-1.21962491 94.28023346 -1.32001754 74.52106918 -1.25509644 54.51802063 C-1.24949062 51.8057825 -1.2454394 49.09354277 -1.24142456 46.38130188 C-1.23051724 39.80185203 -1.21331853 33.22244659 -1.19259644 26.64302063 C-5.48259644 26.64302063 -9.77259644 26.64302063 -14.19259644 26.64302063 C-14.66791611 17.37428693 -13.36451705 11.01886702 -8.65499878 3.0370636 C-5.75974092 0.22218172 -3.96488828 0.04799105 0 0 Z M36.80740356 39.64302063 C35.61398604 40.61634324 35.61398604 40.61634324 35.69387817 42.40888977 C35.69911499 43.15775452 35.70435181 43.90661926 35.70974731 44.67817688 C35.71296997 45.4870636 35.71619263 46.29595032 35.71951294 47.12934875 C35.72789185 47.97948547 35.73627075 48.82962219 35.74490356 49.70552063 C35.74941528 50.55952454 35.753927 51.41352844 35.75857544 52.29341125 C35.77039983 54.40997726 35.78833588 56.52650748 35.80740356 58.64302063 C37.12740356 58.64302063 38.44740356 58.64302063 39.80740356 58.64302063 C42.58211435 52.39992136 43.1837456 47.44505438 42.80740356 40.64302063 C40.81599796 40.26168764 38.81461279 39.92976481 36.80740356 39.64302063 Z M35.80740356 92.64302063 C34.81740356 94.12802063 34.81740356 94.12802063 33.80740356 95.64302063 C34.21698987 97.74389428 34.21698987 97.74389428 35.18240356 99.83052063 C35.47888794 100.54595032 35.77537231 101.26138 36.08084106 101.99848938 C36.32060669 102.54118469 36.56037231 103.08388 36.80740356 103.64302063 C42.60962107 104.00565922 46.44739567 102.89986606 51.80740356 100.64302063 C52.18803577 98.31693493 52.52010301 95.98246799 52.80740356 93.64302063 C50.75725743 91.5928745 46.67855769 92.41244088 43.86990356 92.39302063 C42.75712036 92.36208313 42.75712036 92.36208313 41.62185669 92.33052063 C39.21272821 92.27839324 39.21272821 92.27839324 35.80740356 92.64302063 Z " fill="#8BA1E2" transform="translate(499.1925964355469,37.35697937011719)"/>
<path d="M0 0 C4.40060496 1.9630731 7.62033164 4.62033164 11 8 C12.49751071 15.24183408 12.20306684 22.98781332 12.31640625 30.3515625 C12.33718735 31.49160736 12.35796844 32.63165222 12.37937927 33.8062439 C12.4442436 37.41244052 12.50346334 41.01870374 12.5625 44.625 C12.60574539 47.08464203 12.6493615 49.54427757 12.69335938 52.00390625 C12.79985935 58.00253582 12.90173742 64.00123014 13 70 C13.24972565 69.4591275 13.49945129 68.918255 13.75674438 68.36099243 C14.90785225 65.87609331 16.06713727 63.39509108 17.2265625 60.9140625 C17.6191626 60.06336182 18.0117627 59.21266113 18.41625977 58.33618164 C21.5270972 51.70207302 24.93741848 45.38328804 30 40 C34.08981234 38.63672922 37.90349523 38.77614191 42.1875 38.75 C43.01314453 38.729375 43.83878906 38.70875 44.68945312 38.6875 C51.80830989 38.64262147 57.84599707 40.1922038 63.875 44.1875 C64.42929687 44.53167969 64.98359375 44.87585938 65.5546875 45.23046875 C72.05075493 53.18376212 69.774062 69.51774052 69 79 C67.46153522 88.95506593 64.23680812 98.49213991 61 108 C62.175625 107.938125 63.35125 107.87625 64.5625 107.8125 C70.01000721 107.82214161 74.07073006 109.56541466 78.4375 112.8125 C80.54703679 115.76585151 80.33553299 117.41371883 80 121 C78.609375 123.8515625 78.609375 123.8515625 76.75 126.625 C76.14671875 127.54539062 75.5434375 128.46578125 74.921875 129.4140625 C70.35843531 135.55430046 70.35843531 135.55430046 66.76171875 136.734375 C56.80123455 137.6923848 46.31550013 138.16178594 37 134 C35.44067339 132.44067339 35.74720089 130.84083522 35.61108398 128.6706543 C35.5211039 127.2873719 35.5211039 127.2873719 35.42930603 125.87614441 C35.36884598 124.86900894 35.30838593 123.86187347 35.24609375 122.82421875 C35.14833397 121.27091606 35.14833397 121.27091606 35.04859924 119.68623352 C34.91107752 117.48293832 34.77589148 115.27949632 34.64282227 113.07592773 C34.44066003 109.73964996 34.22972338 106.40401546 34.01757812 103.06835938 C33.8848833 100.92451211 33.75270636 98.78063272 33.62109375 96.63671875 C33.55860947 95.65184982 33.49612518 94.6669809 33.43174744 93.65226746 C33.02245339 86.76142661 32.93198641 79.90216737 33 73 C32.34 73 31.68 73 31 73 C30.76023437 73.52464844 30.52046875 74.04929687 30.2734375 74.58984375 C28.94642146 77.10140478 27.41338583 79.41877301 25.82617188 81.77197266 C18.85710851 92.16040979 14.8022334 102.11861226 14.8125 114.6875 C14.81185547 115.49461426 14.81121094 116.30172852 14.81054688 117.13330078 C14.86005047 122.70358079 15.51434727 127.61450886 17 133 C17 134.32 17 135.64 17 137 C5.78 137 -5.44 137 -17 137 C-17.03738281 132.98199219 -17.07476562 128.96398437 -17.11328125 124.82421875 C-17.15163484 121.53266919 -17.19270325 118.24117724 -17.2355423 114.94968414 C-17.27941505 111.52369098 -17.31898682 108.0977983 -17.34643555 104.67163086 C-17.50600282 86.26707402 -18.51584664 68.24207444 -21 50 C-21.1571196 48.84088608 -21.1571196 48.84088608 -21.31741333 47.65835571 C-21.8646449 43.70012708 -22.47526949 39.75506471 -23.125 35.8125 C-23.7573298 31.87612635 -24.38511193 27.93913805 -25 24 C-25.12270264 23.22454834 -25.24540527 22.44909668 -25.37182617 21.65014648 C-26.3381514 14.9634864 -25.35940948 10.44106905 -21.54296875 4.875 C-15.62483572 -1.52019386 -8.19609936 -1.43036852 0 0 Z " fill="#899FDF" transform="translate(403,30)"/>
<path d="M0 0 C5.1944156 2.17287526 9.35142381 5.34835687 12.625 9.9375 C13.56193386 13.31468054 13.49301863 16.50253706 13.37890625 19.98828125 C13.37447006 20.9520871 13.37003387 21.91589294 13.36546326 22.90890503 C13.34120379 26.0241578 13.26569516 29.13567467 13.1875 32.25 C13.15865255 34.3890508 13.13196561 36.52813182 13.10742188 38.66723633 C12.91935664 51.7284228 12.385782 64.73089336 11.0625 77.73046875 C10.49715697 83.46671296 10.53481824 89.17901918 10.625 94.9375 C21.07070237 83.99438323 23.72646168 73.19977939 23.7578125 58.44921875 C23.63949499 55.32076461 23.20920964 52.50228232 22.625 49.4375 C22.33203125 47.06640625 22.33203125 47.06640625 22.625 44.9375 C25.76911095 41.12243733 29.76210771 38.77745412 34.625 37.9375 C43.6037714 37.15479266 50.28291218 37.48469419 57.625 42.9375 C58.70394531 43.67033203 58.70394531 43.67033203 59.8046875 44.41796875 C62.19850932 46.41624491 62.51968506 48.22901768 62.96875 51.25 C63.52015305 60.73413245 59.34558343 66.29036201 53.6015625 73.46484375 C50.39462771 77.47668114 47.49854736 81.68267666 44.625 85.9375 C44.02429688 86.82695313 43.42359375 87.71640625 42.8046875 88.6328125 C42.25039063 89.49648437 41.69609375 90.36015625 41.125 91.25 C40.6196875 92.02988281 40.114375 92.80976562 39.59375 93.61328125 C38.38182214 96.52093075 38.66668074 97.97408197 39.625 100.9375 C41.18804526 103.41731752 41.18804526 103.41731752 43.625 104.9375 C46.68775204 104.75373488 48.8855309 104.30723455 51.625 102.9375 C56.35705877 102.36041966 60.28081634 101.97736882 64.25 104.8125 C66.24142678 109.33846996 66.57227291 113.07820691 65.625 117.9375 C62.75868447 124.25757382 58.12793777 128.84960337 52.625 132.9375 C51.861875 133.55625 51.09875 134.175 50.3125 134.8125 C45.19849999 136.95324419 40.18853745 136.81836309 34.96484375 135.0234375 C29.52612427 132.48044649 25.49601303 129.52159438 21.625 124.9375 C21.625 124.2775 21.625 123.6175 21.625 122.9375 C20.965 122.9375 20.305 122.9375 19.625 122.9375 C19.295 122.2775 18.965 121.6175 18.625 120.9375 C15.93372871 122.03394386 14.42735306 123.14063713 12.375 125.25 C5.50425003 131.96459656 -0.36538596 134.07820072 -9.875 134.125 C-11.1846875 134.13917969 -12.494375 134.15335938 -13.84375 134.16796875 C-18.81710088 133.84338058 -18.81710088 133.84338058 -21.375 131.9375 C-21.95910645 129.33062744 -21.95910645 129.33062744 -22.08007812 125.96972656 C-22.13558838 124.70229614 -22.19109863 123.43486572 -22.24829102 122.12902832 C-22.2688858 121.4464949 -22.28948059 120.76396149 -22.31069946 120.06074524 C-22.37537542 117.92510335 -22.46382688 115.7916197 -22.55834961 113.65710449 C-22.72652745 109.75440515 -22.86991914 105.85120528 -23.00575256 101.947258 C-23.09605535 99.35571535 -23.18966068 96.76430917 -23.28405762 94.1729126 C-23.51758317 87.74642372 -23.7463981 81.31976978 -23.97393799 74.89306641 C-24.16725592 69.43383476 -24.36308908 63.97470573 -24.56251526 58.51569366 C-24.65414635 55.98008702 -24.74210606 53.44437038 -24.82995605 50.90863037 C-24.5922039 36.2801152 -24.5922039 36.2801152 -28.9375 22.75 C-31.18779876 18.56339766 -32.19604733 15.77255648 -31.375 10.9375 C-25.52989597 -2.94462208 -13.41367077 -5.04273337 0 0 Z " fill="#8499D7" transform="translate(827.375,31.0625)"/>
<path d="M0 0 C0.98210449 0.02030273 1.96420898 0.04060547 2.97607422 0.06152344 C9.54974556 0.24725123 15.89602557 0.64535336 22.25 2.4375 C23.24 2.705625 24.23 2.97375 25.25 3.25 C35.94616185 6.45884856 44.79220046 11.69350209 50.46875 21.5546875 C57.52324128 35.3109455 55.65491444 53.76411362 51.3125 68.25390625 C50.961875 69.30449219 50.61125 70.35507813 50.25 71.4375 C50.023125 72.25089844 49.79625 73.06429687 49.5625 73.90234375 C46.30667303 84.50413032 36.0817983 91.77911418 26.71875 96.79296875 C19.35088614 100.1944659 12.5960064 100.66928828 4.5625 100.75 C3.14807617 100.79350586 3.14807617 100.79350586 1.70507812 100.83789062 C-6.15943419 100.90815775 -13.15900293 99.55912265 -19.23046875 94.28125 C-30.45949146 78.86382751 -36.9229844 64.81019173 -36.9375 45.5625 C-36.94974609 44.71558594 -36.96199219 43.86867187 -36.97460938 42.99609375 C-37.00742146 28.71189885 -31.48477781 19.12465324 -21.625 8.9375 C-19.8671875 7.21875 -19.8671875 7.21875 -17.75 5.4375 C-17.28078125 5.00429443 -16.8115625 4.57108887 -16.328125 4.12475586 C-11.14983599 -0.20607916 -6.56306278 -0.2389004 0 0 Z M2.0234375 40.4765625 C-0.66354583 43.44763217 -0.20989026 45.88439623 -0.125 49.8125 C-0.11210938 51.11960937 -0.09921875 52.42671875 -0.0859375 53.7734375 C0.31210351 58.11486155 1.00605774 61.10470472 4 64.3125 C7.04706234 65.83603117 8.9811428 65.08948518 12.25 64.4375 C12.36632513 61.02112047 12.43728897 57.60525103 12.5 54.1875 C12.53351562 53.21941406 12.56703125 52.25132813 12.6015625 51.25390625 C12.75378354 45.69116352 12.75378354 45.69116352 10.484375 40.765625 C7.41902243 38.94356229 5.2447857 38.97326667 2.0234375 40.4765625 Z " fill="#889EDE" transform="translate(736.75,67.5625)"/>
<path d="M0 0 C0.92224365 0.0191748 1.8444873 0.03834961 2.79467773 0.05810547 C17.9081647 0.5417998 34.13399119 3.03839319 45.0625 14.5 C46.99711056 17.39079739 48.61782738 20.33707887 50.0625 23.5 C50.59617187 24.66015625 51.12984375 25.8203125 51.6796875 27.015625 C53.69969464 32.54470992 53.55471837 38.11359922 53.5 43.9375 C53.49025146 45.08750488 53.48050293 46.23750977 53.47045898 47.42236328 C53.15045485 62.91924139 51.00969368 74.7757973 40.0625 86.5 C39.28648437 87.34433594 38.51046875 88.18867188 37.7109375 89.05859375 C28.20223281 98.48986599 18.55459767 100.949725 5.5625 101.0625 C-4.72917163 100.9397629 -13.34381774 99.75450604 -22.375 94.5 C-36.47837742 77.98872887 -35.91206097 53.95670627 -34.9375 33.5 C-34.90390381 32.73107422 -34.87030762 31.96214844 -34.83569336 31.16992188 C-34.02251074 20.94151462 -24.44052102 11.93709368 -16.9375 5.5 C-16.45885498 5.06606934 -15.98020996 4.63213867 -15.48706055 4.18505859 C-10.49519037 0.0722186 -6.32466747 -0.22110579 0 0 Z M3.0625 39.5 C-0.59631473 48.03723438 -0.9135013 55.6454776 2.0625 64.5 C3.94625675 66.82483785 3.94625675 66.82483785 7.0625 66.6875 C9.98636603 66.70079609 9.98636603 66.70079609 12.0625 65.5 C12.149485 61.72931168 12.20288579 57.95888068 12.25 54.1875 C12.27513672 53.11564453 12.30027344 52.04378906 12.32617188 50.93945312 C12.33583984 49.91142578 12.34550781 48.88339844 12.35546875 47.82421875 C12.3711792 46.87635498 12.38688965 45.92849121 12.40307617 44.9519043 C12.2529663 42.46292294 12.2529663 42.46292294 10.7434082 40.67895508 C8.23488889 38.91953027 6.03727165 39.30168189 3.0625 39.5 Z " fill="#89A0E0" transform="translate(636.9375,67.5)"/>
<path d="M0 0 C2.7543529 -0.28588708 5.24803296 -0.37568438 8 -0.3125 C9.20245361 -0.29558105 9.20245361 -0.29558105 10.42919922 -0.27832031 C22.04181944 -0.01980856 33.5169056 1.23551092 44.875 3.6875 C46.15117187 3.95949219 47.42734375 4.23148437 48.7421875 4.51171875 C53.96772674 6.89892553 55.23044152 11.06266707 57.23046875 16.09765625 C57.54628906 17.07605469 57.86210937 18.05445312 58.1875 19.0625 C58.51105469 20.04347656 58.83460938 21.02445313 59.16796875 22.03515625 C61.71792299 31.1216129 62.38944858 40.39416354 58 49 C53.4710874 55.54176264 47.4508466 57.87770679 40 60 C39.39470459 60.17797119 38.78940918 60.35594238 38.16577148 60.53930664 C35.65447839 61.07349783 33.36416124 61.11258233 30.796875 61.09765625 C29.8171875 61.09443359 28.8375 61.09121094 27.828125 61.08789062 C26.81234375 61.07951172 25.7965625 61.07113281 24.75 61.0625 C23.203125 61.05573242 23.203125 61.05573242 21.625 61.04882812 C19.08330846 61.03706103 16.54164682 61.0191261 14 61 C14 64.96 14 68.92 14 73 C24.27342015 72.68237827 34.02398871 72.16563503 44.01953125 69.62109375 C48.84186258 68.61617805 51.89702225 68.38487779 56.25 70.8125 C59.12182 73.09690227 60.72288881 74.70320624 61.5 78.33984375 C60.74657141 82.34831932 58.05190306 84.1442707 55 86.5625 C54.40131104 87.04920166 53.80262207 87.53590332 53.18579102 88.03735352 C49.01773747 91.35726646 45.01796284 94.13130684 40 96 C38.68322266 96.55107422 38.68322266 96.55107422 37.33984375 97.11328125 C29.4179994 100.15051011 22.4118016 100.54269688 14 100 C12.89269531 99.98710937 11.78539062 99.97421875 10.64453125 99.9609375 C2.85360584 99.45829715 -1.61778947 96.58888545 -6.81713867 91.01074219 C-19.52062963 76.53749415 -26.2117866 61.48993421 -25.22216797 42.20263672 C-23.73835895 27.49173014 -14.16677502 15.78805014 -4.35546875 5.53125 C-1.91029271 3.03957351 -1.91029271 3.03957351 0 0 Z M18 35 C18 35.99 18 36.98 18 38 C20.28705831 39.14352916 21.59264762 39.10334439 24.125 39.0625 C25.40375 39.041875 26.6825 39.02125 28 39 C28 38.01 28 37.02 28 36 C25.71294169 34.85647084 24.40735238 34.89665561 21.875 34.9375 C19.956875 34.9684375 19.956875 34.9684375 18 35 Z " fill="#869CDA" transform="translate(217,68)"/>
<path d="M0 0 C5.13152099 5.7029349 6.43727629 11.55417324 6.2265625 19.05078125 C6.21625 19.86844971 6.2059375 20.68611816 6.1953125 21.52856445 C5.9903454 29.2894327 4.58159831 36.44469307 2.7890625 43.98828125 C-4.8009375 43.98828125 -12.3909375 43.98828125 -20.2109375 43.98828125 C-20.2109375 38.37828125 -20.2109375 32.76828125 -20.2109375 26.98828125 C-29.71130031 27.23805068 -29.71130031 27.23805068 -38.2109375 30.98828125 C-39.76741069 35.65770083 -39.47797844 40.34688661 -39.5234375 45.23828125 C-39.56694336 46.77548828 -39.56694336 46.77548828 -39.61132812 48.34375 C-39.66535614 54.80217621 -39.12283697 58.77241529 -35.2109375 63.98828125 C-31.62878102 66.37638557 -28.92666341 66.4097924 -24.7734375 66.42578125 C-24.06348633 66.43037354 -23.35353516 66.43496582 -22.62207031 66.43969727 C-16.64174783 66.31538719 -12.00037764 64.73451507 -6.6640625 61.984375 C-4.2109375 60.98828125 -4.2109375 60.98828125 -2.0859375 61.15234375 C1.59812906 62.79482343 3.84863754 65.50305195 5.7890625 68.98828125 C6.67953492 73.56887138 6.56619646 77.37367683 4.53125 81.6015625 C-1.53005944 89.90528462 -14.47208515 93.42416254 -24.2109375 94.98828125 C-34.58162286 95.74228817 -43.39656565 94.6640296 -53.2109375 90.98828125 C-54.01660156 90.71886719 -54.82226562 90.44945312 -55.65234375 90.171875 C-60.39573561 88.02069729 -61.93893509 84.86760768 -63.79101562 80.21582031 C-64.80561451 77.45247174 -65.74222371 74.67343321 -66.62011719 71.86376953 C-67.12349861 70.26584554 -67.6812438 68.68521456 -68.25 67.109375 C-71.09313352 57.87496978 -71.54810465 49.06077167 -71.5234375 39.42578125 C-71.53955078 38.16314453 -71.55566406 36.90050781 -71.57226562 35.59960938 C-71.57664494 27.21322572 -71.30125965 20.03121646 -66.08203125 13.203125 C-65.27894531 12.45160156 -64.47585938 11.70007813 -63.6484375 10.92578125 C-62.33166016 9.69021484 -62.33166016 9.69021484 -60.98828125 8.4296875 C-49.1101375 -2.01171875 -49.1101375 -2.01171875 -46.2109375 -2.01171875 C-46.2109375 -2.67171875 -46.2109375 -3.33171875 -46.2109375 -4.01171875 C-30.66474293 -8.55391125 -13.71850512 -9.89483667 0 0 Z " fill="#899FDF" transform="translate(362.2109375,72.01171875)"/>
<path d="M0 0 C3.52466545 0.49544826 7.05484114 0.93260354 10.58789062 1.36376953 C10.64223179 3.90572843 10.68172453 6.44650635 10.71289062 8.98876953 C10.72964844 9.70162109 10.74640625 10.41447266 10.76367188 11.14892578 C10.82968206 18.34403649 9.0459827 23.59447391 4.58789062 29.36376953 C-0.07507526 32.31832119 -5.0839596 31.95500412 -10.41210938 31.36376953 C-14.68379921 30.10073153 -18.62106679 28.3335053 -22.53320312 26.21533203 C-25.15357896 25.02771887 -26.71723077 25.51275524 -29.41210938 26.36376953 C-30.07210937 27.02376953 -30.73210938 27.68376953 -31.41210938 28.36376953 C-22.93941972 34.21034004 -14.46870178 39.05011932 -4.89916992 42.91625977 C1.06619363 45.5068856 3.75865831 48.5468737 6.58789062 54.36376953 C7.04578979 55.29624512 7.04578979 55.29624512 7.51293945 56.24755859 C10.97705661 63.82166263 12.3849149 73.51060476 9.90429688 81.59033203 C6.22263308 88.52591445 0.4178258 91.82601692 -6.78710938 94.11376953 C-8.03234375 94.52111328 -9.27757812 94.92845703 -10.56054688 95.34814453 C-21.00135781 98.10129955 -36.60099503 100.20007965 -46.48242188 94.83642578 C-52.16601972 90.49894322 -57.62937809 84.76663304 -58.91210938 77.55126953 C-58.2193021 73.13462315 -56.03012779 70.01645982 -52.41210938 67.36376953 C-48.36000768 66.77352886 -45.82753761 67.89030444 -42.28710938 69.80126953 C-36.74501806 72.75761307 -32.54279469 73.52175205 -26.28710938 73.48876953 C-25.54589844 73.49263672 -24.8046875 73.49650391 -24.04101562 73.50048828 C-20.42980968 73.83123612 -20.42980968 73.83123612 -17.41210938 72.36376953 C-18.68441406 71.67154297 -18.68441406 71.67154297 -19.98242188 70.96533203 C-28.93407642 66.01680588 -37.20149591 60.45288287 -45.41210938 54.36376953 C-46.67474609 53.44144531 -46.67474609 53.44144531 -47.96289062 52.50048828 C-56.72068219 46.04822137 -56.72068219 46.04822137 -58.06054688 39.85986328 C-59.54310758 29.33368228 -59.07627023 18.07205613 -52.72460938 9.17626953 C-51.62444075 7.9019735 -50.52016145 6.63121657 -49.41210938 5.36376953 C-48.92871094 4.61482422 -48.4453125 3.86587891 -47.94726562 3.09423828 C-38.56242388 -9.51457263 -13.21554624 -1.88154338 0 0 Z " fill="#899EDE" transform="translate(961.412109375,70.63623046875)"/>
<path d="M0 0 C0.96372528 -0.00126892 1.92745056 -0.00253784 2.92037964 -0.00384521 C6.09303939 -0.00213855 9.26496671 0.02322676 12.4375 0.05078125 C14.63167253 0.06012938 16.82584573 0.06932371 19.02001953 0.07836914 C34.13011157 0.17310391 49.21851851 0.60878309 64.3125 1.30078125 C65.26560059 1.34407562 66.21870117 1.38737 67.20068359 1.43197632 C69.88158251 1.55715595 72.56191122 1.6903059 75.2421875 1.828125 C76.42939896 1.88604218 76.42939896 1.88604218 77.64059448 1.94512939 C80.78140429 2.1183257 83.43744413 2.36326263 86.4375 3.36328125 C91.50183906 11.91404958 94.88877927 21.4871126 92.4375 31.36328125 C90.0705475 37.31581526 86.24135264 40.94607508 80.5703125 43.8125 C79.57773438 44.22113281 78.58515625 44.62976563 77.5625 45.05078125 C76.57507813 45.46714844 75.58765625 45.88351563 74.5703125 46.3125 C71.19205996 47.44560465 67.97151979 47.96027899 64.4375 48.36328125 C64.44797363 48.94368164 64.45844727 49.52408203 64.46923828 50.12207031 C65.63581235 125.93461775 65.63581235 125.93461775 52.4375 140.36328125 C43.33133444 147.72571298 31.88367348 147.98803377 20.69140625 147.16015625 C10.26913186 145.88678408 -0.69483051 141.56702462 -7.5625 133.36328125 C-9.55346255 127.32035975 -8.87589259 120.23165788 -6.5625 114.36328125 C-3.47658323 109.00715183 1.0049922 103.45713098 6.4375 100.36328125 C11.53183962 100.45762087 11.53183962 100.45762087 13.4375 102.36328125 C15.12608822 95.13469501 15.82507235 88.14800234 16.0625 80.73828125 C16.10117188 79.73410156 16.13984375 78.72992188 16.1796875 77.6953125 C16.27278622 75.2514712 16.35860913 72.80761529 16.4375 70.36328125 C15.43332031 70.38648437 14.42914063 70.4096875 13.39453125 70.43359375 C-8.75203581 70.79549244 -8.75203581 70.79549244 -15.5 66.48828125 C-23.14939975 54.89828164 -26.77898651 43.97400304 -26.9375 30.17578125 C-26.95151855 29.33208984 -26.96553711 28.48839844 -26.97998047 27.61914062 C-26.92675074 20.66924924 -25.91849341 15.02606512 -21.22265625 9.71875 C-20.36542969 9.00332031 -19.50820312 8.28789063 -18.625 7.55078125 C-17.77035156 6.82246094 -16.91570312 6.09414063 -16.03515625 5.34375 C-15.21917969 4.69019531 -14.40320313 4.03664062 -13.5625 3.36328125 C-13.04872803 2.83492676 -12.53495605 2.30657227 -12.00561523 1.76220703 C-8.15659142 -0.44174085 -4.35855197 -0.04362452 0 0 Z M-9.5625 9.36328125 C-10.36173417 10.76923247 -11.15691624 12.17748754 -11.95043945 13.58666992 C-12.39370071 14.37063644 -12.83696198 15.15460297 -13.2936554 15.96232605 C-17.05620337 23.08196 -18.02606457 29.5685295 -17.875 37.55078125 C-17.87822266 38.41380859 -17.88144531 39.27683594 -17.88476562 40.16601562 C-17.83853264 45.65933528 -17.70883492 50.77440305 -14.046875 55.19140625 C-6.33073329 61.51725216 -2.25806977 61.36328125 8.4375 61.36328125 C8.4375 52.78328125 8.4375 44.20328125 8.4375 35.36328125 C14.0475 35.36328125 19.6575 35.36328125 25.4375 35.36328125 C25.13931223 59.91846717 24.64924874 84.26483114 21.69702148 108.6640625 C21.4483482 111.25045185 21.39050379 113.76696215 21.4375 116.36328125 C20.89222656 116.14671875 20.34695312 115.93015625 19.78515625 115.70703125 C14.0780803 113.59980321 9.5112233 113.07405633 3.4375 113.36328125 C2.74140318 122.0876947 3.58869006 129.84762584 8.4375 137.36328125 C17.89445936 140.59947928 31.40841139 139.2143979 40.4375 135.36328125 C41.25992188 135.13898438 42.08234375 134.9146875 42.9296875 134.68359375 C45.88351913 133.61719447 47.36794315 132.74920347 49.4375 130.36328125 C50.76049209 126.12694073 51.37101117 122.0798508 51.82470703 117.67822266 C52.18944833 114.34214157 52.62996314 111.04317447 53.19702148 107.7355957 C55.63227143 93.29827641 55.78994408 79.16233713 55.625 64.55078125 C55.60990392 62.1894618 55.59622435 59.82813286 55.58398438 57.46679688 C55.55141992 51.76541257 55.50162279 46.06439361 55.4375 40.36328125 C56.86425049 40.39264771 56.86425049 40.39264771 58.31982422 40.42260742 C60.19951904 40.445448 60.19951904 40.445448 62.1171875 40.46875 C63.35710449 40.48832764 64.59702148 40.50790527 65.87451172 40.52807617 C72.1566993 40.23751316 76.57324062 38.27414711 80.9375 33.80078125 C83.19949851 30.12503367 83.59570042 27.28750112 83.625 23.05078125 C83.63917969 22.12652344 83.65335937 21.20226562 83.66796875 20.25 C83.41108405 17.03241026 82.49899926 14.4000053 81.4375 11.36328125 C51.13196509 8.85311909 20.82457407 9.15195041 -9.5625 9.36328125 Z " fill="#0C0C0D" transform="translate(110.5625,28.63671875)"/>
<path d="M0 0 C4.40754038 0.75525628 7.92873332 2.27725432 11.0546875 5.5234375 C13.70626669 11.07978592 13.38537032 16.35446661 13.3671875 22.3984375 C13.38330078 23.46191406 13.39941406 24.52539062 13.41601562 25.62109375 C13.41979377 31.70390766 13.05608965 36.18600428 10.0546875 41.5234375 C5.6400201 45.9381049 0.54015883 48.09490796 -5.5703125 49.1484375 C-8.9453125 48.5234375 -8.9453125 48.5234375 -11.7578125 45.8359375 C-17.5190988 36.47384727 -17.03112341 22.65056464 -14.6953125 12.2734375 C-14.14655713 10.34658607 -13.56653678 8.42816039 -12.9453125 6.5234375 C-12.72488281 5.8325 -12.50445313 5.1415625 -12.27734375 4.4296875 C-9.85295735 -0.78828121 -4.98579223 -0.25599422 0 0 Z M-4.9453125 9.5234375 C-8.60412723 18.06067188 -8.9213138 25.6689151 -5.9453125 34.5234375 C-4.06155575 36.84827535 -4.06155575 36.84827535 -0.9453125 36.7109375 C1.97855353 36.72423359 1.97855353 36.72423359 4.0546875 35.5234375 C4.1416725 31.75274918 4.19507329 27.98231818 4.2421875 24.2109375 C4.26732422 23.13908203 4.29246094 22.06722656 4.31835938 20.96289062 C4.32802734 19.93486328 4.33769531 18.90683594 4.34765625 17.84765625 C4.3633667 16.89979248 4.37907715 15.95192871 4.39526367 14.9753418 C4.2451538 12.48636044 4.2451538 12.48636044 2.7355957 10.70239258 C0.22707639 8.94296777 -1.97054085 9.32511939 -4.9453125 9.5234375 Z " fill="#08090B" transform="translate(644.9453125,97.4765625)"/>
<path d="M0 0 C3.79885922 1.48701523 6.89963704 3.21200417 9.07202148 6.74194336 C10.95009482 11.31187239 10.36942845 16.44018245 10.375 21.3125 C10.39949219 22.42818359 10.42398438 23.54386719 10.44921875 24.69335938 C10.4729333 31.36110169 10.05659892 35.62092011 6 41 C0.66998115 45.13076461 -5.57782841 44.28058031 -12 44 C-13.00735708 40.7921056 -14.00183308 37.58127092 -14.9765625 34.36328125 C-15.53112637 32.54084043 -16.09536486 30.7207172 -16.7109375 28.91796875 C-19.03978693 21.44202455 -19.28059429 11.99431772 -17.3359375 4.41015625 C-13.85170551 -2.09285689 -6.39694847 -1.10983202 0 0 Z M-8.2265625 10.0390625 C-10.91354583 13.01013217 -10.45989026 15.44689623 -10.375 19.375 C-10.36210938 20.68210937 -10.34921875 21.98921875 -10.3359375 23.3359375 C-9.93789649 27.67736155 -9.24394226 30.66720472 -6.25 33.875 C-3.20293766 35.39853117 -1.2688572 34.65198518 2 34 C2.11632513 30.58362047 2.18728897 27.16775103 2.25 23.75 C2.28351562 22.78191406 2.31703125 21.81382813 2.3515625 20.81640625 C2.50378354 15.25366352 2.50378354 15.25366352 0.234375 10.328125 C-2.83097757 8.50606229 -5.0052143 8.53576667 -8.2265625 10.0390625 Z " fill="#09090A" transform="translate(747,98)"/>
<path d="M0 0 C7.26 0 14.52 0 22 0 C22.97833291 25.43665562 22.97833291 25.43665562 16.3046875 32.89453125 C11.07631946 35.88972994 6.05063225 35 0 35 C0 23.45 0 11.9 0 0 Z M8 9 C6.80658248 9.97332261 6.80658248 9.97332261 6.88647461 11.76586914 C6.89171143 12.51473389 6.89694824 13.26359863 6.90234375 14.03515625 C6.90556641 14.84404297 6.90878906 15.65292969 6.91210938 16.48632812 C6.92048828 17.33646484 6.92886719 18.18660156 6.9375 19.0625 C6.94201172 19.91650391 6.94652344 20.77050781 6.95117188 21.65039062 C6.96299627 23.76695663 6.98093231 25.88348685 7 28 C8.32 28 9.64 28 11 28 C13.77471079 21.75690073 14.37634203 16.80203375 14 10 C12.0085944 9.61866701 10.00720923 9.28674418 8 9 Z " fill="#111215" transform="translate(528,68)"/>
<path d="M0 0 C10.23 0 20.46 0 31 0 C31 12.85882353 31 12.85882353 27 19 C23.6875 20.5625 23.6875 20.5625 20 21 C18.96875 21.20625 17.9375 21.4125 16.875 21.625 C11.23758227 22.17055655 5.66304253 22.05838188 0 22 C0 14.74 0 7.48 0 0 Z M7 6 C6.01 7.485 6.01 7.485 5 9 C5.40958631 11.10087365 5.40958631 11.10087365 6.375 13.1875 C6.67148437 13.90292969 6.96796875 14.61835938 7.2734375 15.35546875 C7.51320313 15.89816406 7.75296875 16.44085938 8 17 C13.8022175 17.36263859 17.63999211 16.25684543 23 14 C23.38063221 11.6739143 23.71269945 9.33944736 24 7 C21.94985387 4.94985387 17.87115412 5.76942025 15.0625 5.75 C13.9497168 5.7190625 13.9497168 5.7190625 12.81445312 5.6875 C10.40532465 5.63537261 10.40532465 5.63537261 7 6 Z " fill="#0F1014" transform="translate(528,124)"/>
<path d="M0 0 C0.47453613 0.36351563 0.94907227 0.72703125 1.43798828 1.1015625 C6.46838794 4.91933116 11.61155264 8.51210544 16.875 12 C17.65858887 12.52110352 18.44217773 13.04220703 19.24951172 13.57910156 C24.74019287 17.21228971 30.28563524 20.72644431 36 24 C33.17509857 26.82490143 30.4130613 26.42396029 26.625 26.4375 C25.9127124 26.44064209 25.2004248 26.44378418 24.46655273 26.44702148 C17.91661443 26.30114149 9.8233356 24.8233356 5 20 C1.27775401 19.70613847 0.22213757 19.85190829 -3 22 C-2.67 20.68 -2.34 19.36 -2 18 C2.35843207 16.76059653 5.45636989 17.33746714 9.8125 18.4375 C11.55466797 18.86869141 11.55466797 18.86869141 13.33203125 19.30859375 C14.21246094 19.53675781 15.09289062 19.76492187 16 20 C13.68830838 15.78893602 12.41292733 14.741945 8 13 C7.6278958 11.67696283 7.29369827 10.34262065 7 9 C5.0162233 7.71563266 5.0162233 7.71563266 3 7 C3 6.34 3 5.68 3 5 C2.34 5 1.68 5 1 5 C0.67 3.35 0.34 1.7 0 0 Z " fill="#171315" transform="translate(909,119)"/>
<path d="M0 0 C1.17852539 0.05027344 1.17852539 0.05027344 2.38085938 0.1015625 C3.17814453 0.11960937 3.97542969 0.13765625 4.796875 0.15625 C6.76288387 0.20334003 8.72827431 0.27508351 10.69335938 0.3515625 C10.69335938 4.9715625 10.69335938 9.5915625 10.69335938 14.3515625 C3.43692441 14.62367881 -1.72585051 14.46248146 -8.30664062 11.3515625 C-8.96664062 10.6915625 -9.62664062 10.0315625 -10.30664062 9.3515625 C-9.73518968 2.11318389 -6.87993326 -0.11710525 0 0 Z M-2.30664062 5.3515625 C-2.30664062 6.3415625 -2.30664062 7.3315625 -2.30664062 8.3515625 C-0.01958231 9.49509166 1.28600699 9.45490689 3.81835938 9.4140625 C5.09710938 9.3934375 6.37585938 9.3728125 7.69335938 9.3515625 C7.69335938 8.3615625 7.69335938 7.3715625 7.69335938 6.3515625 C5.40630106 5.20803334 4.10071176 5.24821811 1.56835938 5.2890625 C-0.34976563 5.32 -0.34976563 5.32 -2.30664062 5.3515625 Z " fill="#272B37" transform="translate(237.306640625,97.6484375)"/>
<path d="M0 0 C3.90532683 0.37793485 7.2815754 0.76052513 11 2 C11 2.99 11 3.98 11 5 C10.278125 4.67 9.55625 4.34 8.8125 4 C5.9248217 2.97326994 4.03182858 2.68086015 1 3 C0.01 3.66 -0.98 4.32 -2 5 C-1.125 1.125 -1.125 1.125 0 0 Z " fill="#1F1E24" transform="translate(908,136)"/>
<path d="M0 0 C0.33 0 0.66 0 1 0 C1 1.65 1 3.3 1 5 C1.66 5 2.32 5 3 5 C3.33 3.68 3.66 2.36 4 1 C3.67 3.97 3.34 6.94 3 10 C2.34 9.01 1.68 8.02 1 7 C0.01 8.32 -0.98 9.64 -2 11 C-1.34 7.37 -0.68 3.74 0 0 Z " fill="#363A45" transform="translate(367,101)"/>
</svg>
